<svg width="170" height="51" viewBox="0 0 170 51" fill="none" xmlns="http://www.w3.org/2000/svg">
<rect y="0.809998" width="170" height="50" rx="3" fill="#F9F9F9" fill-opacity="0.976471"/>
<path d="M58.6168 25.6422C58.6168 24.4321 58.887 23.3513 59.4274 22.3997C59.9796 21.4363 60.7256 20.6903 61.6654 20.1616C62.617 19.6212 63.6803 19.351 64.8551 19.351C66.2296 19.351 67.4338 19.7035 68.4677 20.4084C69.5015 21.1132 70.224 22.0883 70.6352 23.3337H67.798C67.5161 22.7462 67.1166 22.3057 66.5997 22.012C66.0945 21.7183 65.5071 21.5714 64.8375 21.5714C64.1208 21.5714 63.4805 21.7418 62.9166 22.0825C62.3645 22.4114 61.9298 22.8814 61.6126 23.4923C61.3071 24.1032 61.1544 24.8198 61.1544 25.6422C61.1544 26.4528 61.3071 27.1695 61.6126 27.7921C61.9298 28.403 62.3645 28.8788 62.9166 29.2195C63.4805 29.5485 64.1208 29.7129 64.8375 29.7129C65.5071 29.7129 66.0945 29.5661 66.5997 29.2724C67.1166 28.9669 67.5161 28.5205 67.798 27.9331H70.6352C70.224 29.1901 69.5015 30.1711 68.4677 30.876C67.4456 31.5692 66.2414 31.9157 64.8551 31.9157C63.6803 31.9157 62.617 31.6514 61.6654 31.1227C60.7256 30.5823 59.9796 29.8363 59.4274 28.8847C58.887 27.9331 58.6168 26.8523 58.6168 25.6422ZM78.2759 31.9334C77.1245 31.9334 76.0672 31.6631 75.1038 31.1227C74.1405 30.5823 73.3769 29.8363 72.8129 28.8847C72.249 27.9213 71.9671 26.8346 71.9671 25.6246C71.9671 24.4262 72.249 23.3513 72.8129 22.3997C73.3769 21.4363 74.1405 20.6844 75.1038 20.144C76.0672 19.6036 77.1245 19.3334 78.2759 19.3334C79.4389 19.3334 80.4963 19.6036 81.4479 20.144C82.4112 20.6844 83.169 21.4363 83.7212 22.3997C84.2851 23.3513 84.567 24.4262 84.567 25.6246C84.567 26.8346 84.2851 27.9213 83.7212 28.8847C83.169 29.8363 82.4112 30.5823 81.4479 31.1227C80.4845 31.6631 79.4272 31.9334 78.2759 31.9334ZM78.2759 29.7306C79.016 29.7306 79.668 29.5661 80.2319 29.2371C80.7959 28.8964 81.2364 28.4148 81.5536 27.7921C81.8708 27.1695 82.0294 26.4469 82.0294 25.6246C82.0294 24.8022 81.8708 24.0855 81.5536 23.4746C81.2364 22.852 80.7959 22.3762 80.2319 22.0472C79.668 21.7183 79.016 21.5538 78.2759 21.5538C77.5357 21.5538 76.8778 21.7183 76.3022 22.0472C75.7382 22.3762 75.2977 22.852 74.9805 23.4746C74.6633 24.0855 74.5047 24.8022 74.5047 25.6246C74.5047 26.4469 74.6633 27.1695 74.9805 27.7921C75.2977 28.4148 75.7382 28.8964 76.3022 29.2371C76.8778 29.5661 77.5357 29.7306 78.2759 29.7306ZM96.7468 31.81H94.2797L88.6934 23.3689V31.81H86.2263V19.492H88.6934L94.2797 27.9507V19.492H96.7468V31.81ZM107.379 19.5096V21.5009H104.102V31.81H101.634V21.5009H98.3566V19.5096H107.379ZM111.47 19.5096V31.81H109.003V19.5096H111.47ZM124.252 31.81H121.785L116.199 23.3689V31.81H113.732V19.492H116.199L121.785 27.9507V19.492H124.252V31.81ZM128.946 19.5096V27.1225C128.946 27.9566 129.163 28.5969 129.598 29.0433C130.033 29.478 130.643 29.6953 131.431 29.6953C132.229 29.6953 132.846 29.478 133.281 29.0433C133.716 28.5969 133.933 27.9566 133.933 27.1225V19.5096H136.418V27.1048C136.418 28.1504 136.189 29.0374 135.73 29.7658C135.284 30.4824 134.679 31.0229 133.915 31.3871C133.163 31.7513 132.323 31.9334 131.395 31.9334C130.479 31.9334 129.645 31.7513 128.893 31.3871C128.153 31.0229 127.565 30.4824 127.131 29.7658C126.696 29.0374 126.479 28.1504 126.479 27.1048V19.5096H128.946ZM141.092 21.5009V24.5848H145.234V26.5409H141.092V29.8011H145.762V31.81H138.625V19.492H145.762V21.5009H141.092Z" fill="#0E0B14"/>
<g clip-path="url(#clip0_21_3)">
<path d="M28.3334 16.2683V34.3517L42.5417 25.31L28.3334 16.2683Z" fill="black"/>
</g>
<defs>
<clipPath id="clip0_21_3">
<rect width="31" height="31" fill="white" transform="translate(18 9.81)"/>
</clipPath>
</defs>
</svg>
