<svg width="40" height="41" viewBox="0 0 40 41" fill="none" xmlns="http://www.w3.org/2000/svg">
<circle cx="20" cy="20.81" r="20" fill="black"/>
<circle cx="20" cy="20.81" r="18.5" stroke="#F9F9F9" stroke-opacity="0.976471" stroke-width="3"/>
<g clip-path="url(#clip0_21_4)">
<path d="M26.5001 21.8934H21.0834V27.31C21.0834 27.9059 20.5959 28.3934 20.0001 28.3934C19.4042 28.3934 18.9167 27.9059 18.9167 27.31V21.8934H13.5001C12.9042 21.8934 12.4167 21.4059 12.4167 20.81C12.4167 20.2142 12.9042 19.7267 13.5001 19.7267H18.9167V14.31C18.9167 13.7142 19.4042 13.2267 20.0001 13.2267C20.5959 13.2267 21.0834 13.7142 21.0834 14.31V19.7267H26.5001C27.0959 19.7267 27.5834 20.2142 27.5834 20.81C27.5834 21.4059 27.0959 21.8934 26.5001 21.8934Z" fill="#F9F9F9" fill-opacity="0.976471"/>
</g>
<defs>
<clipPath id="clip0_21_4">
<rect width="26" height="26" fill="white" transform="translate(7 7.81)"/>
</clipPath>
</defs>
</svg>
