<svg width="79" height="48" viewBox="0 0 79 48" fill="none" xmlns="http://www.w3.org/2000/svg">
<path d="M55.8338 31.0747C54.7404 31.3553 51.8627 31.5169 51.8627 31.5169L51.4982 32.7925C51.4982 32.7925 52.9333 32.6565 53.9811 32.7755C53.9811 32.7755 54.3228 32.733 54.3608 33.2093C54.376 33.6515 54.3304 34.1277 54.3304 34.1277C54.3304 34.1277 54.3076 34.4169 53.9432 34.4849C53.5483 34.5614 50.8452 34.672 50.8452 34.672L50.4049 36.3303C50.4049 36.3303 50.2454 36.713 50.6099 36.6025C50.9515 36.5004 53.7837 35.9051 54.1558 35.9902C54.5506 36.1007 54.991 36.6875 54.8619 37.2318C54.7101 37.8951 51.8855 39.9191 50.1619 39.7746C50.1619 39.7746 49.2583 39.8426 48.4914 38.4734C47.7777 37.1723 48.7648 34.6975 48.7648 34.6975C48.7648 34.6975 48.3168 33.5409 48.6433 33.1582C48.6433 33.1582 48.8407 32.9626 49.4026 32.9116L50.0935 31.3043C50.0935 31.3043 49.3039 31.3638 48.8331 30.7175C48.3927 30.0967 48.3623 29.816 48.6964 29.646C49.0533 29.4504 52.3411 28.7785 54.6038 28.8636C54.6038 28.8636 55.3934 28.7785 56.0692 30.3093C56.0616 30.3093 56.3957 30.9301 55.8338 31.0747ZM47.3221 37.2488C47.0336 38.0142 46.2667 38.8306 45.3176 38.3203C44.376 37.8101 42.8802 34.3828 42.8802 34.3828C42.8802 34.3828 42.3107 33.1072 42.2044 33.1327C42.2044 33.1327 42.0829 32.8861 42.007 34.2808C41.9311 35.6755 42.0222 38.3884 41.5287 38.8136C41.0579 39.2388 40.4884 39.0687 40.1923 38.567C39.9265 38.0737 39.8126 36.9001 39.9569 34.8421C40.1315 32.784 40.5568 30.5899 41.1034 29.9011C41.6501 29.2207 42.0905 29.714 42.2576 29.8926C42.2576 29.8926 42.9865 30.6325 44.1938 32.8096L44.4064 33.2093C44.4064 33.2093 45.4998 35.2673 45.6137 35.2588C45.6137 35.2588 45.7048 35.3523 45.7807 35.2843C45.8946 35.2503 45.8491 34.587 45.8491 34.587C45.8491 34.587 45.6213 32.3503 44.6266 28.5574C44.6266 28.5574 44.4747 28.0812 44.581 27.6389C44.6797 27.1882 45.0822 27.4008 45.0822 27.4008C45.0822 27.4008 46.6311 28.2683 47.3752 31.0917C48.1118 33.9406 47.6106 36.4834 47.3221 37.2488ZM39.7139 29.9946C39.5849 30.2838 39.5089 30.7005 38.8559 30.811C38.8559 30.811 32.6069 31.2873 32.3108 31.7805C32.3108 31.7805 32.0906 32.0697 32.4323 32.1547C32.7739 32.2313 34.1862 32.4439 34.8696 32.4864C35.5985 32.4949 38.0587 32.5204 38.9394 33.7535C38.9394 33.7535 39.4634 34.3403 39.4406 35.667C39.4178 37.0277 39.2052 37.5039 38.7344 37.9972C38.2409 38.4564 34.004 40.5825 31.2705 37.3168C31.2705 37.3168 30.0101 35.7435 31.7033 34.5529C31.7033 34.5529 32.9258 33.728 36.0313 34.6975C36.0313 34.6975 36.9729 35.0802 36.9273 35.4629C36.8742 35.8711 36.1528 36.3048 35.105 36.2793C34.0875 36.2453 33.3434 35.701 33.4877 35.7861C33.6244 35.8456 32.3943 35.1227 32.0147 35.616C31.635 36.0667 31.7261 36.3473 32.0982 36.628C33.0473 37.2318 36.7147 37.0192 37.8081 35.6585C37.8081 35.6585 38.2409 35.1057 37.5803 34.655C36.9197 34.2298 35.0291 33.9746 34.2925 33.9321C33.5864 33.8896 30.9592 33.9406 30.5796 33.1582C30.5796 33.1582 30.1999 32.631 30.6175 31.1342C31.0579 29.5694 34.1179 28.9656 35.4391 28.8295C35.4391 28.8295 39.0761 28.685 39.7443 29.5184C39.7367 29.5184 39.8278 29.714 39.7139 29.9946ZM29.3875 39.1708C28.9471 39.5365 28.0132 39.3749 27.7474 38.9667C27.4816 38.601 27.3905 37.1467 27.4437 34.8676C27.4968 32.5629 27.5424 29.7055 27.9828 29.2548C28.4535 28.7955 28.7421 29.1952 28.9243 29.5099C29.1217 29.816 29.3571 30.1562 29.4103 30.8791C29.4558 31.6019 29.6077 35.3949 29.6077 35.3949C29.6077 35.3949 29.8051 38.8136 29.3875 39.1708ZM30.3366 26.9416C29.0534 27.4178 28.1726 27.2563 27.4285 26.8991C27.102 27.5369 26.9122 27.7325 26.6616 27.775C26.2971 27.8175 25.9706 27.1627 25.9099 26.9501C25.8492 26.7885 25.6745 26.5164 25.8871 25.8701C25.1582 25.1387 25.105 24.1522 25.2265 23.4889C25.4088 22.7235 26.6388 19.815 30.3822 19.4748C30.3822 19.4748 32.2121 19.3217 32.5234 20.4188H32.5765C32.5765 20.4188 34.3533 20.4273 34.3153 22.1962C34.2925 23.9736 32.3412 26.1847 30.3366 26.9416ZM26.8438 23.0041C26.4642 23.6844 26.449 24.0927 26.6236 24.3733C27.0564 23.6334 27.8461 22.4683 29.0078 21.5839C28.1119 21.6689 27.3602 22.1027 26.8438 23.0041ZM32.0147 21.8645C30.8377 22.0601 29.0154 23.829 28.1498 25.2748C29.4786 25.5469 31.8248 25.4448 32.8651 23.0721C32.8575 23.0721 33.3586 21.6009 32.0147 21.8645ZM63.9659 35.5649C63.2598 36.9426 61.278 39.8171 58.6356 39.1453C57.7624 41.518 57.0335 43.9077 56.6159 47.4965C56.6159 47.4965 56.5248 48.1938 56.0085 47.9472C55.4997 47.7431 54.6493 46.7906 54.4823 45.4724C54.3 43.7376 54.991 40.8036 56.3957 37.4444C55.9857 36.696 55.7047 35.6245 55.9477 34.1022C55.9477 34.1022 56.3046 31.2788 58.8331 28.7275C58.8331 28.7275 59.1368 28.4298 59.3114 28.5234C59.5088 28.6169 59.4177 29.5354 59.2583 29.9776C59.0988 30.4198 57.9675 32.614 57.9675 32.614C57.9675 32.614 57.2613 34.0937 57.4587 35.2588C58.7875 32.9711 61.8095 28.3533 63.685 29.8075C64.3152 30.3093 64.6037 31.4063 64.6037 32.5884C64.5961 33.6345 64.3759 34.74 63.9659 35.5649ZM63.4192 31.9421C63.4192 31.9421 63.3129 31.0322 62.5232 32.0357C61.8399 32.8776 60.6098 34.4679 59.6151 36.6195C60.6554 36.4919 61.6576 35.8541 61.9614 35.5309C62.4549 35.0377 63.6014 33.711 63.4192 31.9421ZM26.5553 33.0987C26.411 35.1567 25.7049 38.618 20.7011 40.3274C17.3982 41.4414 14.2775 40.9056 12.5766 40.4209C12.5387 41.1778 12.4627 41.5009 12.3564 41.6285C12.2122 41.7901 11.134 42.4874 10.5417 41.5009C10.276 41.0332 10.1393 40.1828 10.0634 39.4259C6.2365 37.4529 4.47492 34.6125 4.40659 34.4849C4.32307 34.3914 3.44987 33.3708 4.32306 32.1207C5.14311 30.9896 7.82343 29.8586 10.238 29.3993C10.3215 27.0862 10.5645 25.3428 10.853 24.5434C11.2023 23.6164 11.6427 24.4498 12.0223 25.0792C12.3412 25.5469 12.5311 27.5624 12.5463 29.1697C14.1256 29.0847 15.0595 29.2122 16.8211 29.5694C19.1142 30.0372 20.648 31.3468 20.5113 32.8351C20.4126 34.2978 19.2129 34.9016 18.7573 34.9441C18.279 34.9867 17.5348 34.604 17.5348 34.604C17.0261 34.3318 17.4969 34.0937 18.1119 33.7961C18.7801 33.4304 18.6282 33.0562 18.6282 33.0562C18.3777 32.2398 15.4012 31.67 12.44 31.67C12.4248 33.4984 12.5083 36.5344 12.5463 38.3033C14.6191 38.7456 16.1681 38.6605 16.1681 38.6605C16.1681 38.6605 23.7307 38.4224 23.9585 33.0137C24.1939 27.5964 16.4187 22.4003 10.6708 20.7505C4.9305 19.0666 1.68071 20.2402 1.39977 20.4018C1.09605 20.5719 1.37699 20.6229 1.37699 20.6229C1.37699 20.6229 1.6883 20.6739 2.2274 20.878C2.79688 21.0821 2.35648 21.4138 2.35648 21.4138C1.37699 21.7625 0.276007 21.5414 0.0634038 21.0396C-0.1492 20.5379 0.207672 20.0871 0.617693 19.4408C1.02771 18.7605 1.4757 18.786 1.4757 18.786C8.57513 16.0306 17.2235 21.0141 17.2235 21.0141C25.3252 25.6149 26.7072 31.0066 26.5553 33.0987ZM5.12792 32.8181C4.32306 33.2603 4.87735 33.8981 4.87735 33.8981C6.38836 35.718 8.24864 36.8576 10.0178 37.5635C10.2228 34.4254 10.1924 33.3198 10.2152 31.738C7.45137 31.9506 5.85685 32.4439 5.12792 32.8181Z" fill="#F9F9F9" fill-opacity="0.976471"/>
<path d="M79.0001 32.1717V33.2943C79.0001 33.5409 78.8254 33.7365 78.6052 33.7365H73.8292C73.8292 34.0172 73.8368 34.2638 73.8368 34.4934C73.8368 36.1518 73.7761 37.5039 73.6318 39.0262C73.609 39.2558 73.442 39.4259 73.2446 39.4259H72.2119C72.1056 39.4259 72.0069 39.3749 71.9386 39.2898C71.8703 39.2048 71.8323 39.0857 71.8475 38.9667C71.9917 37.4529 72.0601 36.1177 72.0601 34.4934C72.0601 34.2553 72.0601 34.0087 72.0525 33.7365H67.3296C67.1094 33.7365 66.9348 33.5409 66.9348 33.2943V32.1717C66.9348 31.9251 67.1094 31.7295 67.3296 31.7295H71.9841C71.8854 29.9011 71.688 28.1407 71.3691 26.3548C71.3539 26.2443 71.3767 26.1337 71.4375 26.0486C71.4982 25.9636 71.5893 25.9126 71.688 25.9126H72.8042C72.9788 25.9126 73.1231 26.0487 73.1611 26.2443C73.4724 28.0897 73.6698 29.8841 73.7685 31.7295H78.6052C78.8178 31.7295 79.0001 31.9336 79.0001 32.1717Z" fill="#F9F9F9" fill-opacity="0.976471"/>
<path d="M72.5004 23.2677C70.0327 16.4728 65.8642 10.6814 60.4428 6.51429C54.8923 2.25364 48.3851 0 41.6274 0C30.4505 0 20.0785 6.21664 13.8902 16.6344C13.8219 16.745 13.8067 16.8895 13.8447 17.0171C13.8826 17.1532 13.9738 17.2467 14.0877 17.2892L14.9533 17.6209C15.0064 17.6379 15.0596 17.6464 15.1051 17.6464C15.2646 17.6464 15.4164 17.5529 15.5075 17.4083C18.3473 12.7309 22.1894 8.84447 26.6237 6.15711C31.2022 3.38471 36.3882 1.91347 41.6198 1.91347C47.9447 1.91347 54.0419 4.00552 59.2659 7.95151C64.3608 11.804 68.3167 17.1872 70.7085 23.5059C70.7768 23.693 70.9439 23.8205 71.1261 23.8205H72.1587C72.2802 23.8205 72.3941 23.7525 72.4549 23.6419C72.5308 23.5314 72.546 23.3953 72.5004 23.2677ZM70.9135 23.6674C70.9363 23.6845 70.9591 23.7015 70.9818 23.71C70.9591 23.693 70.9363 23.6845 70.9135 23.6674Z" fill="url(#paint0_radial_52_39)"/>
<defs>
<radialGradient id="paint0_radial_52_39" cx="0" cy="0" r="1" gradientUnits="userSpaceOnUse" gradientTransform="translate(71.5303 23.7777) scale(57.7161 64.6432)">
<stop offset="0.00708621" stop-color="white"/>
<stop offset="0.0300991" stop-color="#CBFFFF"/>
<stop offset="0.0570069" stop-color="#96FFFF"/>
<stop offset="0.0842769" stop-color="#68FFFF"/>
<stop offset="0.1113" stop-color="#43FFFF"/>
<stop offset="0.1382" stop-color="#25FFFF"/>
<stop offset="0.1647" stop-color="#11FFFF"/>
<stop offset="0.1908" stop-color="#04FFFF"/>
<stop offset="0.2159" stop-color="#00FFFF"/>
<stop offset="1" stop-color="#0000FF" stop-opacity="0"/>
</radialGradient>
</defs>
</svg>
