<svg width="19" height="24" viewBox="0 0 19 24" fill="none" xmlns="http://www.w3.org/2000/svg">
<g clip-path="url(#clip0_2_12)" filter="url(#filter0_d_2_12)">
<path d="M14.0423 10.3333H10.1799V14.2917C10.1799 14.7271 9.83224 15.0833 9.40738 15.0833C8.98251 15.0833 8.6349 14.7271 8.6349 14.2917V10.3333H4.77248C4.34762 10.3333 4 9.97708 4 9.54167C4 9.10625 4.34762 8.75 4.77248 8.75H8.6349V4.79167C8.6349 4.35625 8.98251 4 9.40738 4C9.83224 4 10.1799 4.35625 10.1799 4.79167V8.75H14.0423C14.4671 8.75 14.8148 9.10625 14.8148 9.54167C14.8148 9.97708 14.4671 10.3333 14.0423 10.3333Z" fill="#F9F9F9" fill-opacity="0.976471"/>
</g>
<defs>
<filter id="filter0_d_2_12" x="-4" y="0" width="26.5396" height="27" filterUnits="userSpaceOnUse" color-interpolation-filters="sRGB">
<feFlood flood-opacity="0" result="BackgroundImageFix"/>
<feColorMatrix in="SourceAlpha" type="matrix" values="0 0 0 0 0 0 0 0 0 0 0 0 0 0 0 0 0 0 127 0" result="hardAlpha"/>
<feOffset dy="4"/>
<feGaussianBlur stdDeviation="2"/>
<feComposite in2="hardAlpha" operator="out"/>
<feColorMatrix type="matrix" values="0 0 0 0 0 0 0 0 0 0 0 0 0 0 0 0 0 0 0.25 0"/>
<feBlend mode="normal" in2="BackgroundImageFix" result="effect1_dropShadow_2_12"/>
<feBlend mode="normal" in="SourceGraphic" in2="effect1_dropShadow_2_12" result="shape"/>
</filter>
<clipPath id="clip0_2_12">
<rect width="18.5396" height="19" fill="white"/>
</clipPath>
</defs>
</svg>
