<svg width="20" height="19" viewBox="0 0 20 19" fill="none" xmlns="http://www.w3.org/2000/svg">
<g clip-path="url(#clip0_2_19)">
<path d="M14.7996 2.375V3.95833H13.2547V2.375H7.07479V3.95833H5.52983V2.375H3.98486V16.625H5.52983V15.0417H7.07479V16.625H13.2547V15.0417H14.7996V16.625H16.3446V2.375H14.7996ZM7.07479 13.4583H5.52983V11.875H7.07479V13.4583ZM7.07479 10.2917H5.52983V8.70833H7.07479V10.2917ZM7.07479 7.125H5.52983V5.54167H7.07479V7.125ZM14.7996 13.4583H13.2547V11.875H14.7996V13.4583ZM14.7996 10.2917H13.2547V8.70833H14.7996V10.2917ZM14.7996 7.125H13.2547V5.54167H14.7996V7.125Z" fill="#F9F9F9" fill-opacity="0.976471"/>
</g>
<defs>
<clipPath id="clip0_2_19">
<rect width="18.5396" height="19" fill="white" transform="translate(0.89502)"/>
</clipPath>
</defs>
</svg>
