<svg width="19" height="19" viewBox="0 0 19 19" fill="none" xmlns="http://www.w3.org/2000/svg">
<g clip-path="url(#clip0_2_9)">
<path d="M11.9735 11.0833H11.3633L11.147 10.8696C12.074 9.76125 12.5529 8.24917 12.2902 6.64208C11.9272 4.44125 10.135 2.68375 7.97207 2.41458C4.70447 2.00292 1.95443 4.82125 2.35612 8.17C2.61877 10.3867 4.33368 12.2233 6.48118 12.5954C8.04932 12.8646 9.52476 12.3737 10.6062 11.4237L10.8148 11.6454V12.2708L14.0979 15.6354C14.4146 15.96 14.9321 15.96 15.2489 15.6354C15.5656 15.3108 15.5656 14.7804 15.2489 14.4558L11.9735 11.0833ZM7.33864 11.0833C5.41515 11.0833 3.86247 9.49208 3.86247 7.52083C3.86247 5.54958 5.41515 3.95833 7.33864 3.95833C9.26212 3.95833 10.8148 5.54958 10.8148 7.52083C10.8148 9.49208 9.26212 11.0833 7.33864 11.0833Z" fill="#F9F9F9" fill-opacity="0.976471"/>
</g>
<defs>
<clipPath id="clip0_2_9">
<rect width="18.5396" height="19" fill="white"/>
</clipPath>
</defs>
</svg>
